<?xml version="1.0" encoding="UTF-8" standalone="no"?>
<!-- Created with Inkscape (http://www.inkscape.org/) -->

<svg
   width="210mm"
   height="297mm"
   viewBox="0 0 210 297"
   version="1.1"
   id="svg1"
   xml:space="preserve"
   sodipodi:docname="RideSense_Logo_Svg_vf.svg"
   inkscape:version="1.3.2 (091e20e, 2023-11-25, custom)"
   xmlns:inkscape="http://www.inkscape.org/namespaces/inkscape"
   xmlns:sodipodi="http://sodipodi.sourceforge.net/DTD/sodipodi-0.dtd"
   xmlns="http://www.w3.org/2000/svg"
   xmlns:svg="http://www.w3.org/2000/svg"><sodipodi:namedview
     id="namedview1"
     pagecolor="#ffffff"
     bordercolor="#000000"
     borderopacity="0.25"
     inkscape:showpageshadow="2"
     inkscape:pageopacity="0.0"
     inkscape:pagecheckerboard="0"
     inkscape:deskcolor="#d1d1d1"
     inkscape:document-units="mm"
     inkscape:zoom="1"
     inkscape:cx="332.5"
     inkscape:cy="543"
     inkscape:window-width="2560"
     inkscape:window-height="1364"
     inkscape:window-x="-8"
     inkscape:window-y="-8"
     inkscape:window-maximized="1"
     inkscape:current-layer="g1" /><defs
     id="defs1"><inkscape:path-effect
       effect="simplify"
       id="path-effect1"
       is_visible="true"
       lpeversion="1.3"
       threshold="5"
       steps="1"
       smooth_angles="360"
       helper_size="10"
       simplify_individual_paths="false"
       simplify_just_coalesce="false" /><inkscape:path-effect
       effect="simplify"
       id="path-effect1-7"
       is_visible="true"
       lpeversion="1.3"
       threshold="5"
       steps="1"
       smooth_angles="360"
       helper_size="10"
       simplify_individual_paths="false"
       simplify_just_coalesce="false" /><inkscape:path-effect
       effect="simplify"
       id="path-effect1-2"
       is_visible="true"
       lpeversion="1.3"
       threshold="5"
       steps="1"
       smooth_angles="360"
       helper_size="10"
       simplify_individual_paths="false"
       simplify_just_coalesce="false" /></defs><g
     inkscape:label="Layer 1"
     inkscape:groupmode="layer"
     id="layer1"
     inkscape:highlight-color="#32c8e7"><g
       id="g1"
       transform="matrix(0.26458333,0,0,0.26458333,-30.555377,15.894013)"><path
         style="fill:#294dff;fill-opacity:1"
         inkscape:path-effect="#path-effect1"
         inkscape:original-d="M 0,0 C 3.119404,0.02365402 6.2379503,0.02052507 9.3574219,0.01391602 27.19662,0.03825037 43.905503,1.5138405 61.123047,6.3361816 c 1.077656,0.2861719 2.155312,0.5723438 3.265625,0.8671875 43.062968,11.7539029 43.062968,11.7539029 50.734378,21.1328129 0.5625,2.875 0.5625,2.875 0,6 -6.80911,8.010712 -19.649083,10.98089 -29.328128,14.066406 -3.031633,1.059299 -5.748306,2.4363 -8.573975,3.944824 -2.184516,1.029593 -4.292742,1.694711 -6.617431,2.344238 -5.789154,1.692825 -11.404738,3.758208 -17.042969,5.894532 -1.047766,0.394775 -2.095532,0.78955 -3.175049,1.196289 -7.430949,2.816656 -14.795887,5.7627 -22.11792,8.850586 -4.535616,1.891719 -9.127012,3.635718 -13.716553,5.391601 -3.300639,1.262805 -6.5972721,2.535504 -9.8928219,3.811524 -2.1574926,0.833487 -4.31504554,1.666818 -6.4726562,2.5 -1.1337305,0.438603 -2.267461,0.877207 -3.4355469,1.329101 -5.844097,2.25147 -11.694458,4.415181 -17.626953,6.420899 -14.676695,5.175752 -27.954523,15.188548 -35.25,29.062498 -6.389959,13.65128 -7.961275,26.70467 -2.945313,41.15625 7.65954,19.42419 19.505558,28.06957 38.144532,36.33985 8.105203,3.30051 16.4818245,5.62723 24.8874508,8.02856 7.0099095,2.00806 13.9438332,4.16448 20.8398442,6.53369 10.709142,3.67197 21.588895,6.81267 32.448486,10.00415 9.49911,2.80225 18.966761,5.68203 28.398437,8.70313 3.50123,1.12095 7.014601,2.19796 10.53125,3.26953 33.898036,10.42223 66.137376,22.34482 88.945316,51.15234 0.40718,0.51128 0.81436,1.02255 1.23388,1.54932 16.36282,20.75844 26.41886,44.60133 26.20362,71.32568 -0.0103,1.97227 -0.0103,1.97227 -0.0208,3.98438 -0.16014,9.69256 -1.19364,17.99968 -4.41674,27.14062 -0.36223,1.1666 -0.72446,2.3332 -1.09766,3.53516 -9.94566,30.44382 -33.22397,56.04037 -58.90234,74.46484 -0.83652,0.61102 -0.83652,0.61102 -1.68994,1.23438 -16.26151,11.77573 -34.58613,20.65251 -53.310063,27.76562 -0.636958,0.24476 -1.273916,0.48952 -1.930176,0.7417 -2.017729,0.76878 -4.041508,1.51793 -6.069824,2.2583 -0.653555,0.24106 -1.307109,0.48211 -1.980469,0.73047 -6.522748,2.2964 -13.217464,3.85362 -19.954346,5.37671 -1.970279,0.44795 -3.936538,0.91118 -5.903076,1.37524 -17.261704,3.98697 -34.420862,4.95751 -52.0996091,4.95508 -0.9836252,10e-4 -1.9672504,0.003 -2.9806824,0.004 -16.2467025,-0.0189 -31.2759935,-1.49236 -47.0818175,-5.44174 -1.799801,-0.40413 -3.600566,-0.80399 -5.402344,-1.19922 -19.057554,-4.30558 -47.57991,-11.23983 -60.597653,-26.80078 -1.42663,-2.85324 -1.31034,-4.83454 -1,-8 3.0775,-4.98036 6.79463,-6.67811 11.99609,-8.83594 0.79015,-0.33889 1.5803,-0.67778 2.394395,-1.02694 9.117404,-3.86294 18.38654,-7.32866 27.672012,-10.76212 1.701351,-0.63494 3.402523,-1.27035 5.103516,-1.90625 7.916844,-2.95176 15.850726,-5.8388 23.830078,-8.61719 5.733799,-2.00034 11.345678,-4.18037 16.933105,-6.56494 6.315616,-2.64615 12.734724,-5.03717 19.1333009,-7.47412 1.4991278,-0.57302 2.9982323,-1.1461 4.4973144,-1.71924 8.2129681,-3.13466 16.4449727,-6.20743 24.7041017,-9.2185 32.485978,-11.77971 32.485978,-11.77971 53.736084,-37.87476 5.222197,-11.91889 6.33192,-25.73024 1.875,-38.0625 -6.784683,-15.12775 -17.130815,-25.2225 -32.582031,-31.42578 -3.565127,-1.30752 -7.163896,-2.50462 -10.773438,-3.68311 -2.743189,-0.90216 -5.47513,-1.83424 -8.207031,-2.77001 -10.285486,-3.50473 -20.5956471,-6.78381 -31.0593263,-9.71241 -11.7877257,-3.31239 -23.4713257,-6.95908 -35.1378787,-10.67315 -1.45416,-0.46268 -2.908646,-0.92434 -4.363403,-1.38514 -4.765661,-1.51014 -9.524951,-3.03844 -14.277985,-4.58789 -1.536487,-0.49878 -3.074467,-0.99299 -4.614074,-1.48205 -15.613154,-4.97098 -29.123999,-11.78465 -41.85983,-22.21796 -0.85078,-0.68578 -1.70157,-1.37156 -2.57813,-2.07812 -18.10238,-15.36995 -28.87595,-36.54835 -32.42187,-59.92188 -0.28478,-3.71354 -0.33459,-7.40159 -0.3125,-11.125 0.006,-1.00555 0.0113,-2.0111 0.0171,-3.04712 0.45992,-28.52186 13.03245,-53.25705 32.60791,-73.515378 24.356678,-23.53797 56.300326,-36.612558 87.18652,-49.239991 5.43256,-2.329679 9.119808,-4.876582 11.8056644,-10.146728 1.293262,-3.5819 1.1794787,-6.112972 0.6953125,-9.925781 -2.5787169,-4.881143 -5.3897729,-7.541344 -10.1249999,-10.1875 -7.999595,-2.260755 -14.847373,-0.587593 -22.25,2.6875 -1.75622,0.741573 -3.512739,1.482439 -5.269531,2.222656 -0.887681,0.380434 -1.775362,0.760869 -2.689942,1.152832 -3.3889,1.429683 -6.81209,2.760338 -10.240478,4.091797 -14.591273,5.691012 -28.833343,12.233166 -42.425046,20.032715 -0.98227,0.553007 -1.96453,1.106015 -2.97657,1.675781 -6.60946,3.773252 -12.89671,7.811233 -19.02343,12.324219 -1.54688,1.127285 -1.54688,1.127285 -3.125,2.277343 -11.07845,8.204372 -20.70145,17.566862 -28.875,28.722657 -0.38511,0.525131 -0.77022,1.050263 -1.167,1.591308 -11.85446,16.38097 -19.00379,33.84448 -23.833,53.40869 -0.19578,0.71688 -0.39156,1.43376 -0.59326,2.17236 -1.65608,6.47616 -1.71301,12.79397 -1.65674,19.45264 0.007,1.15428 0.0135,2.30855 0.0205,3.4978 0.10225,8.461 0.60621,16.55553 2.2295,24.8772 0.11827,0.65162 0.23654,1.30324 0.3584,1.97461 5.54552,29.94302 23.41103,57.68299 46.6416,77.02539 0.52593,0.47567 1.05187,0.95133 1.59375,1.44141 5.69111,5.11921 12.05215,9.31997 18.40625,13.55859 0.79019,0.53754 1.58039,1.07508 2.39453,1.62891 14.025228,9.01446 30.709744,13.9805 46.480467,18.99609 1.84237,0.59299 3.68457,1.18651 5.526611,1.78052 15.987684,5.14021 32.024516,10.12808 48.076416,15.06372 0.9137592,0.28178 1.8275182,0.56355 2.7689669,0.85387 1.6939396,0.5221 3.3884802,1.04226 5.0837707,1.55996 18.2622014,5.63344 18.2622014,5.63344 23.7122044,14.97631 1.573949,3.5205 1.860021,6.3903 0.957031,10.14062 -3.393007,7.74929 -8.631939,12.22055 -16.3750001,15.25 -1.7872911,0.64918 -3.5749925,1.29729 -5.36621096,1.93555 -4.77165784,1.72052 -9.51130254,3.52858 -14.25878894,5.31445 -2.109307,0.79055 -4.21868,1.58092 -6.328125,2.3711 -7.830686,2.93714 -15.644782,5.90534 -23.402344,9.03125 -0.858193,0.34538 -1.716387,0.69077 -2.600586,1.04663 -1.664536,0.67121 -3.328056,1.34494 -4.990234,2.02197 -4.76863,1.92564 -9.568016,3.71734 -14.416992,5.4314 -7.23525,2.56214 -14.376343,5.33344 -21.511719,8.16015 -1.782774,0.70286 -1.782774,0.70286 -3.601563,1.41992 -3.384319,1.33543 -6.766739,2.67554 -10.148434,4.01758 -0.94158,0.37254 -1.88316,0.74508 -2.85327,1.12891 -4.61058,1.83157 -9.17272,3.73617 -13.70923,5.74609 -5.99868,2.59138 -12.06427,4.82678 -18.24903,6.93164 -4.29265,1.47322 -8.3791,3.1556 -12.50097,5.06836 -5.93817,2.49728 -11.31538,3.35177 -17.6875,2.125 -5.99117,-2.56631 -10.20043,-6.93388 -14.27735,-11.90234 -1.7058,-2.07713 -3.50992,-4.01215 -5.34765,-5.97266 -33.63202,-37.93379 -51.41466,-88.29439 -56.375,-138.125 -0.0964,-0.92546 -0.19288,-1.85093 -0.29224,-2.80444 -0.8123,-8.5418 -0.90597,-17.06145 -0.89526,-25.63306 -6e-5,-0.74518 -1.2e-4,-1.49036 -1.9e-4,-2.25812 0.0602,-52.2756 15.29547,-101.94626 46.18769,-144.30438 0.57621,-0.83015 1.15242,-1.66031 1.74609,-2.51562 12.76722,-18.155462 28.6157,-35.004129 46.25391,-48.484378 0.85851,-0.687071 1.71703,-1.374141 2.60156,-2.082032 21.69306,-16.957248 46.493894,-29.830074 72.398437,-38.917968 1.316446,-0.475149 2.632856,-0.9504 3.949219,-1.425782 6.874454,-2.4004848 13.813161,-4.3899075 20.863281,-6.1992184 0.745159,-0.1942456 1.490317,-0.3884912 2.258057,-0.588623 2.633526,-0.6520876 5.274055,-1.2293671 7.929443,-1.786377 1.254741,-0.2654663 2.509482,-0.5309326 3.802246,-0.8044433 C -23.37346,0.23216858 -11.90093,-0.09618611 0,0 Z"
         transform="translate(506.87695,189.66382)"
         d="m 0,0 c 21.426462,-0.3487428 43.0799,0.9816993 63.764097,7.0375131 13.847376,4.0541639 28.880959,5.4358709 41.446783,12.6047289 4.85161,2.767861 13.09754,7.796145 10.09674,13.656831 -2.93311,5.728485 -9.92661,8.547633 -15.76361,10.688251 -7.74659,2.840925 -15.220683,6.107243 -23.139252,8.729782 C 66.514424,55.99267 56.59405,59.236376 46.906987,63.112303 29.851045,69.93662 12.64256,76.365294 -4.3629698,83.32212 c -12.7746652,5.226013 -26.4289322,8.731898 -37.7588962,17.13043 -12.018528,8.90894 -19.954576,22.79363 -21.632451,37.70472 -2.393781,21.27325 10.662178,41.71371 28.806942,52.47671 18.085865,10.72806 39.0078625,14.43458 58.751412,20.91576 22.445875,7.36826 45.126594,13.97448 67.736963,20.8288 28.57295,8.66187 58.2835,18.5311 80.2297,39.63212 22.37928,21.51741 37.8482,51.17233 38.78006,82.70356 0.36287,12.27849 -1.47179,24.49733 -5.2474,36.26173 -10.00471,31.17365 -33.24582,56.19978 -59.18035,75.36023 -21.35762,15.77903 -45.62849,27.79112 -71.141968,34.6883 -18.0912,4.89069 -36.567642,8.57576 -55.354947,9.40407 -22.9422531,1.01149 -46.027747,-0.36154 -68.528273,-5.54544 -19.94875,-4.59599 -40.123036,-10.11341 -57.632562,-21.4775 -5.02214,-3.25949 -10.65505,-10.18769 -6.15656,-15.79074 4.95924,-6.17692 13.042259,-8.15326 20.069182,-10.97024 20.632679,-8.2713 41.993347,-14.66019 62.477646,-23.27161 23.8781154,-10.03814 48.300384,-18.69401 72.549455,-27.7657 10.612989,-3.97037 19.162568,-11.80631 25.864388,-20.70532 3.670562,-4.87396 8.037824,-9.19463 9.994787,-15.27879 4.412971,-13.71982 2.49863,-29.12786 -5.24602,-41.56679 C 65.207681,315.51179 51.784167,308.05208 38.02263,303.27764 19.583661,296.88041 0.77412308,291.67406 -17.845675,285.82873 c -18.422364,-5.78334 -37.200392,-10.645 -55.129715,-17.82016 -23.461268,-9.38901 -45.10228,-25.78163 -56.6502,-48.66366 -6.8264,-13.5264 -10.34103,-28.60699 -10.55951,-43.88861 -0.4602,-32.18823 16.38521,-62.94901 40.873631,-83.168843 23.764186,-19.621844 52.743436,-31.055319 80.89036,-42.767713 6.89793,-2.87034 12.5026971,-10.134619 10.7063018,-17.809524 -1.2543533,-5.359089 -5.8778978,-10.274493 -11.0338158,-11.76227 -10.249162,-2.957469 -19.99343,2.558853 -29.284531,6.187065 -18.579339,7.255306 -36.919705,15.190244 -54.320946,25.032533 -21.9204,12.398359 -42.18039,28.52053 -56.38325,49.619302 -11.65762,17.31772 -21.24724,37.03055 -22.86231,57.76169 -1.87081,24.01376 0.79177,48.78672 10.67713,70.99912 9.17359,20.61307 23.73272,38.57539 41.25703,52.64604 8.77003,7.04164 17.91926,13.84288 28.02889,18.79757 18.050831,8.84664 37.621659,13.8516 56.661751,20.05332 18.528851,6.03519 37.4136038,11.01082 55.750892,17.59522 6.114277,2.19546 10.514381,8.1989 11.622533,14.32231 1.412786,7.80674 -4.343816,15.09913 -10.69694,18.68472 -7.7407767,4.36877 -16.3542492,6.85187 -24.688537,9.85402 -20.394608,7.34646 -40.463222,15.51388 -60.732951,23.19997 -17.723762,6.72069 -34.833088,15.05732 -52.774348,21.15838 -8.45342,2.87464 -16.5067,6.81453 -24.98658,9.5803 -6.74787,2.20085 -14.68483,2.13899 -20.4715,-2.68727 -6.57755,-5.48589 -11.96805,-12.22511 -17.41857,-18.79278 -33.148,-39.94207 -50.58686,-91.49325 -53.28244,-142.83131 -1.74094,-33.1567 1.45111,-66.70233 11.48319,-98.49474 8.45467,-26.79345 22.49379,-51.4512 39.08734,-74.043365 21.32627,-29.035784 49.62621,-52.887228 81.56785,-69.350169 C -84.791953,15.982081 -57.221672,5.4342848 -28.512563,1.4358078 -19.071439,0.12089022 -9.4613865,-1.0442339 0,0 Z"
         id="path2" /><path
         d="m 0,0 c 7.8701195,1.1243028 7.8701195,1.1243028 11.164063,2.2695313 0.730898,0.2494335 1.461796,0.4988671 2.214843,0.7558593 0.741211,0.2597461 1.482422,0.5194922 2.246094,0.7871094 11.723526,4.0516674 23.601244,7.565623 35.5,11.0625 9.49911,2.802244 18.966761,5.682024 28.398437,8.703125 3.50123,1.120958 7.014601,2.197968 10.53125,3.269531 C 123.95272,37.26989 156.19206,49.192479 179,78 c 0.40718,0.511274 0.81437,1.022549 1.23389,1.549316 16.36281,20.758444 26.41885,44.601334 26.20361,71.325684 -0.0103,1.97227 -0.0103,1.97227 -0.0207,3.98437 -0.1602,9.69257 -1.19369,17.99969 -4.4168,27.14063 -0.36223,1.1666 -0.72445,2.3332 -1.09766,3.53516 C 190.95669,215.97898 167.67837,241.57553 142,260 c -0.83652,0.61102 -0.83652,0.61102 -1.68994,1.23437 C 124.04855,273.01011 105.72393,281.88689 87,289 c -0.636958,0.24476 -1.273916,0.48952 -1.930176,0.7417 C 83.052095,290.51048 81.028316,291.25963 79,292 c -0.653555,0.24105 -1.307109,0.48211 -1.980469,0.73047 -6.522748,2.2964 -13.217464,3.85362 -19.954345,5.37671 -1.97028,0.44795 -3.936539,0.91118 -5.903077,1.37524 -17.261704,3.98697 -34.420862,4.95751 -52.099609,4.95508 -0.9836252,10e-4 -1.9672504,0.003 -2.9806824,0.004 C -20.164884,304.42281 -35.194176,302.94938 -51,299 c -1.799801,-0.40413 -3.600566,-0.804 -5.402344,-1.19922 C -75.459898,293.4952 -103.98225,286.56095 -117,271 c -1.42662,-2.85324 -1.31034,-4.83455 -1,-8 3.0775,-4.98036 6.79463,-6.67811 11.99609,-8.83594 0.79015,-0.33889 1.5803,-0.67778 2.3944,-1.02694 9.117402,-3.86294 18.386538,-7.32866 27.67201,-10.76212 1.701351,-0.63494 3.402523,-1.27035 5.103516,-1.90625 7.916845,-2.95176 15.850727,-5.8388 23.830078,-8.61719 5.733799,-2.00034 11.345678,-4.18037 16.933105,-6.56494 6.315616,-2.64615 12.734725,-5.03718 19.133301,-7.47412 1.4991278,-0.57302 2.9982323,-1.1461 4.4973145,-1.71924 8.2129681,-3.13466 16.4449725,-6.20743 24.7041015,-9.2185 C 50.749894,195.09505 50.749894,195.09505 72,169 77.222197,157.0811 78.331921,143.26976 73.875,130.9375 67.108918,115.85122 56.798241,105.76024 41.398437,99.546875 37.876087,98.25295 34.320476,97.068003 30.753906,95.902344 27.466187,94.825091 24.186326,93.725301 20.90625,92.625 14.275908,90.400922 7.6380311,88.201558 1,86 1,75.77 1,65.54 1,55 c 7.8488723,1.121267 7.8488723,1.121267 11.558594,2.410156 0.798574,0.267481 1.597148,0.534961 2.419922,0.810547 1.63703,0.560413 3.272464,1.125509 4.90625,1.695313 C 25.155078,61.669955 29.438507,62.456451 35,62 39.724233,59.564493 39.724233,59.564493 42,55 42.590831,49.379206 42.590831,49.379206 40.355469,44.402344 37.665121,41.658456 35.608769,40.706761 32,39.4375 30.2675,38.81875 30.2675,38.81875 28.5,38.1875 27.345,37.795625 26.19,37.40375 25,37 23.989375,36.649375 22.97875,36.29875 21.9375,35.9375 14.672018,33.464144 7.3378177,31.25779 0,29 0,19.43 0,9.86 0,0 Z"
         fill="#172025"
         transform="translate(511,396)"
         id="path3" /><path
         d="m 0,0 c 12.615755,6.6102384 23.244157,20.000647 31.675781,31.175781 0.476148,0.626807 0.952295,1.253614 1.442871,1.899414 11.811367,15.638206 22.516655,31.949655 29.80127,50.208008 0.760484,1.904157 1.544684,3.797081 2.333984,5.689453 12.440032,30.074114 18.787709,61.906054 18.796875,94.453124 0.0019,0.72118 0.0038,1.44236 0.0058,2.1854 -0.0031,10.33021 -0.897971,20.34747 -2.380768,30.5646 -0.167094,1.19722 -0.334189,2.39443 -0.506347,3.62793 -0.478866,3.37716 -0.982204,6.74971 -1.493653,10.12207 -0.165,1.13438 -0.33,2.26875 -0.5,3.4375 -0.165,1.08797 -0.33,2.17594 -0.5,3.29688 -0.144375,0.96647 -0.28875,1.93295 -0.4375,2.92871 -0.541287,2.48935 -1.312531,4.37993 -2.5625,6.58691 -1.65,-0.33 -3.3,-0.66 -5,-1 -0.391875,-1.2375 -0.78375,-2.475 -1.1875,-3.75 -13.768907,-40.92425 -44.250162,-75.12175 -82.625,-94.77734 -24.57877,-11.98844 -51.637422,-19.02911 -77.762069,-26.83907 -5.325786,-1.59555 -10.629804,-3.25354 -15.925434,-4.94609 -5.70922,-1.82304 -11.43358,-3.57318 -17.1875,-5.25 -7.38122,-2.15271 -14.73404,-4.37735 -22.05664,-6.72217 -1.6214,-0.51414 -3.24543,-1.02 -4.87109,-1.5205 -2.79983,-0.86251 -5.59241,-1.745982 -8.38477,-2.632329 -0.87237,-0.264096 -1.74474,-0.528193 -2.64355,-0.800293 -7.09694,-2.289817 -13.64149,-5.693626 -17.85645,-12.074707 -2.11654,-5.203165 -2.45584,-9.41373 -0.875,-14.828125 3.09332,-7.236157 8.44128,-10.689697 15.51172,-13.644531 4.58632,-1.835203 9.21664,-3.539428 13.86328,-5.214844 1.78141,-0.646709 3.56265,-1.293863 5.34375,-1.941406 0.92853,-0.337412 1.85706,-0.674824 2.81372,-1.022461 4.84903,-1.767524 9.69002,-3.556591 14.53003,-5.348633 1.69165,-0.626001 1.69165,-0.626001 3.41748,-1.264648 7.32472,-2.715306 14.64157,-5.450948 21.95361,-8.200196 0.8712,-0.327406 1.7424,-0.654813 2.64,-0.992141 4.318392,-1.623112 8.636053,-3.248105 12.952536,-4.876267 8.564731,-3.224549 17.144476,-6.386763 25.790802,-9.386779 4.766767,-1.659275 9.42183,-3.500893 14.061982,-5.483094 4.855074,-2.061372 9.738388,-4.0520047 14.621093,-6.0468748 1.378048,-0.5642468 1.378048,-0.5642468 2.783936,-1.1398925 1.804445,-0.7379837 3.609856,-1.4736112 5.41626,-2.2067871 1.80523,-0.7361967 3.606616,-1.4818814 5.404296,-2.2363282 0.87044,-0.3606152 1.740879,-0.7212304 2.637696,-1.0927734 0.771987,-0.32395752 1.543974,-0.64791504 2.339355,-0.98168945 C -9.5937938,-1.7528655 -4.9997678,-1.7730269 0,0 Z"
         fill="#0baeee"
         id="path4"
         transform="translate(678.32422,255.82422)"
         style="fill:#294dff;fill-opacity:1" /><path
         d="M 0,0 C 1.0370508,6.4453e-4 2.0741016,0.00128906 3.1425781,0.00195312 4.2260352,0.01806641 5.3094922,0.03417969 6.4257812,0.05078125 7.4899023,0.04755859 8.5540234,0.04433594 9.6503906,0.04101562 20.526624,0.1149122 30.327081,1.9741196 38.488281,9.6132813 c 7.231274,7.6605277 8.891157,16.3656727 8.652344,26.5898437 -0.502986,7.874148 -4.61568,13.779012 -10.214844,19.097656 -9.303309,7.431954 -18.800287,8.258005 -30.3124998,8.3125 -1.0969921,0.02063 -2.1939843,0.04125 -3.3242187,0.0625 -1.0505859,0.0052 -2.1011719,0.01031 -3.18359375,0.01563 -1.43690185,0.01402 -1.43690185,0.01402 -2.90283205,0.02832 -2.991561,-0.432701 -3.6674609,-0.965736 -5.4643555,-3.356446 -0.3809509,-2.504516 -0.3809509,-2.504516 -0.3881835,-5.52539 -0.00946,-1.131274 -0.018913,-2.262547 -0.028656,-3.428101 0.00607,-1.22191 0.012145,-2.443821 0.018402,-3.702759 -0.00287,-1.253814 -0.00574,-2.507629 -0.0087,-3.799438 -0.00204,-2.653269 0.002,-5.305711 0.016022,-7.958863 0.017092,-3.399865 0.00725,-6.79902 -0.010717,-10.19886 -0.01345,-3.243472 -0.00403,-6.486858 0.00339,-9.730339 -0.00607,-1.22191 -0.012145,-2.443821 -0.018402,-3.702759 0.014185,-1.696909 0.014185,-1.696909 0.028656,-3.4281001 0.00239,-0.9968885 0.00477,-1.9937769 0.00723,-3.0208741 C -8.2617188,3.3632813 -8.2617188,3.3632813 -6.888504,1.541214 -4.5662717,-0.14028231 -2.8455753,-0.00903512 0,0 Z"
         fill="#1a2228"
         transform="translate(372.26172,761.63672)"
         id="path5" /><path
         d="M 0,0 C 2.0378615,9.6228e-4 4.0718233,-0.04042962 6.1091309,-0.08496094 15.178202,-0.10283983 22.668763,0.8847871 29.4375,7.3447266 c 5.245933,5.7498624 6.589095,10.3371164 6.447021,18.1132814 -0.768043,6.168102 -4.076966,10.10809 -8.691406,14.042969 -0.886875,0.66 -1.77375,1.32 -2.6875,2 2.69696,4.875272 5.628699,9.392149 8.925781,13.886718 1.074219,2.113282 1.074219,2.113282 0.808594,4.273438 -0.966372,2.42107 -1.511668,3.405839 -3.734375,4.839844 -5.017068,0.715232 -5.017068,0.715232 -8,0 -2.511869,-2.072617 -4.131125,-4.583939 -5.875,-7.3125 -0.471797,-0.690293 -0.943594,-1.380586 -1.429687,-2.091797 -1.258083,-1.849596 -2.481312,-3.717019 -3.695313,-5.595703 -0.66,-0.99 -1.32,-1.98 -1.9999998,-3 -2.6556728,-0.583488 -2.6556728,-0.583488 -5.625,-0.6875 -1.0028906,-0.06574 -2.0057812,-0.131485 -3.03906247,-0.199219 -0.77085937,-0.03738 -1.54171875,-0.07477 -2.33593753,-0.113281 0.087012,1.554609 0.087012,1.554609 0.1757813,3.140625 0.046909,1.369746 0.092408,2.739541 0.1367187,4.109375 0.062842,1.022871 0.062842,1.022871 0.1269532,2.066406 0.048828,2.011719 0.048828,2.011719 -0.4394532,5.683594 -2.5021774,2.601601 -4.0196445,3.808711 -7.5625,4.5 -3.2814242,-0.673113 -4.3445782,-1.914572 -6.4375002,-4.5 -0.501205,-2.624772 -0.501205,-2.624772 -0.501709,-5.638916 -0.0094,-1.131198 -0.01876,-2.262396 -0.02843,-3.427872 0.01123,-1.216749 0.02247,-2.433498 0.03404,-3.687119 -0.0015,-1.252399 -0.0029,-2.504799 -0.0044,-3.79515 0.0017,-2.647537 0.01115,-5.293636 0.03395,-7.940934 0.02842,-3.392021 0.02564,-6.783144 0.01291,-10.175233 -0.0086,-3.237952 0.0065,-6.475758 0.02005,-9.713683 -0.0029,-1.218773 -0.0059,-2.437546 -0.0089,-3.693252 0.01268,-1.128046 0.02537,-2.256091 0.03844,-3.4183199 0.0054,-0.9938723 0.01081,-1.9877445 0.01637,-3.0117341 0.38768,-2.4977874 0.38768,-2.4977874 1.729447,-4.3158874 C -10.325899,-1.0446038 -4.5209277,-0.01503932 0,0 Z"
         fill="#1b2329"
         transform="translate(262.49438,761.49902)"
         id="path6" /><path
         d="M 0,0 C 0.82886719,-0.01675781 1.6577344,-0.03351563 2.5117188,-0.05078125 5.4513314,0.33050743 7.7621104,1.2794251 10.44458,2.5080566 c 3.192703,1.374978 6.525056,2.2453965 9.86792,3.1794434 5.511641,1.5750966 10.953903,3.2552506 16.375,5.125 6.567577,2.233679 13.19762,4.040759 19.929199,5.712891 4.391748,1.107084 8.594043,2.412917 12.813721,4.05957 1.760031,0.680359 3.545263,1.29449 5.331299,1.90332 11.483847,4.031122 11.483847,4.031122 14.550781,9.824219 0.761784,3.90895 0.374174,7.113798 -1.1875,10.8125 -3.008346,3.630762 -5.332887,5.025473 -10.058594,5.542969 C 71.274688,48.55309 64.828573,45.911431 58.4375,43.8125 57.010653,43.353252 55.5834,42.895259 54.155762,42.438477 51.261375,41.511852 48.368558,40.580543 45.476562,39.646484 39.484056,37.71825 33.459894,35.894715 27.4375,34.0625 24.348884,33.111267 21.261504,32.156165 18.174805,31.19873 16.301538,30.618727 14.427223,30.042094 12.551758,29.469238 10.050613,28.702042 7.556018,27.916577 5.0625,27.125 3.9992651,26.804507 3.9992651,26.804507 2.9145508,26.477539 -2.5362905,24.711792 -6.6426897,22.100878 -10.0625,17.4375 -11.011752,14.210045 -11.034035,11.662342 -10.6875,8.3125 -5.9979088,0.02755548 -5.9979088,0.02755548 0,0 Z"
         fill="#f9fcfc"
         transform="translate(464.6875,410.6875)"
         id="path7" /><path
         d="m 0,0 c 12.673747,2.2365436 23.833769,23.860634 31.1875,33.5625 0.01458,-0.893079 0.02916,-1.786157 0.04419,-2.706299 0.06108,-3.315874 0.135236,-6.63092 0.218262,-9.946289 0.03324,-1.434458 0.06127,-2.869047 0.08399,-4.303711 0.03357,-2.063309 0.08588,-4.125424 0.141845,-6.188232 0.02618,-1.2411257 0.05237,-2.4822512 0.07935,-3.7609866 C 32.1875,3.5625 32.1875,3.5625 33.598389,1.6589355 35.58419,0.28879684 36.787947,0.16023235 39.1875,0.1875 40.208438,0.1758984 40.208438,0.1758984 41.25,0.1640625 c 2.57386,0.52930189 3.335797,1.3230279 4.9375,3.3984375 0.38768,2.4977875 0.38768,2.4977875 0.404053,5.5095215 0.01268,1.1280455 0.02537,2.2560905 0.03844,3.4183195 -0.0029,1.218774 -0.0059,2.437547 -0.0089,3.693253 0.0052,1.251443 0.01048,2.502886 0.01588,3.792251 0.0064,2.649077 0.0065,5.297294 -0.0034,7.946274 -0.01149,3.390947 0.0087,6.780851 0.03792,10.171661 0.02278,3.238276 0.0159,6.476476 0.01213,9.714814 0.01123,1.216749 0.02247,2.433498 0.03404,3.687118 -0.01407,1.696797 -0.01407,1.696797 -0.02843,3.427872 -1.66e-4,0.994668 -3.32e-4,1.989336 -5.04e-4,3.014145 -0.640662,3.355093 -1.832431,4.554898 -4.501205,6.624771 -2.8125,0.25 -2.8125,0.25 -6,-1 C 30.85492,58.832399 26.829737,52.513895 22.609375,46.816406 19.990486,43.282208 17.311423,39.795504 14.625,36.3125 14.183093,35.73927 13.741187,35.16604 13.285889,34.575439 12.253707,33.237319 11.220699,31.899835 10.1875,30.5625 c -0.0062,1.278468 -0.0062,1.278468 -0.01245,2.582764 -0.02705,3.178189 -0.07621,6.355069 -0.140137,9.532715 -0.02312,1.372275 -0.037562,2.744727 -0.042969,4.117187 -0.00933,1.978679 -0.053014,3.9571 -0.097412,5.935303 C 9.878821,53.919226 9.863111,55.107983 9.846925,56.332764 9.0015403,60.473296 7.493648,62.00262 4.1875,64.5625 c -3.625,0.0625 -3.625,0.0625 -7,-1 -2.9685317,-3.038517 -3.3777559,-5.262213 -3.3881836,-9.439453 -0.00946,-1.087929 -0.018913,-2.175857 -0.028656,-3.296753 0.00607,-1.169865 0.012145,-2.339729 0.018402,-3.545044 -0.00287,-1.205636 -0.00574,-2.411272 -0.0087,-3.653442 -0.00204,-2.54863 0.00349,-5.097275 0.016022,-7.645874 0.016052,-3.90449 1.52e-4,-7.807945 -0.019043,-11.712403 0.00198,-2.475262 0.00583,-4.950525 0.011719,-7.425781 -0.00607,-1.169864 -0.012145,-2.339729 -0.018402,-3.545044 0.00946,-1.087928 0.018913,-2.175857 0.028656,-3.296753 0.00239,-0.9561217 0.00477,-1.9122435 0.00723,-2.8973387 C -5.5692965,2.9395847 -4.1691479,0.83382957 0,0 Z"
         fill="#1b2428"
         transform="translate(636.8125,761.4375)"
         id="path8" /><path
         d="M 0,0 C 0.8306749,-0.00145523 1.6613498,-0.00291046 2.5171967,-0.00440979 4.2697196,-0.00275263 6.0222574,0.00878827 7.7746582,0.02954102 10.459123,0.05853197 13.141617,0.05014 15.826172,0.03710938 17.529958,0.04334595 19.233737,0.05173626 20.9375,0.0625 c 0.803172,-0.0029356 1.606343,-0.0058713 2.433853,-0.0088959 5.499376,0.0932989 5.499376,0.0932989 8.028793,1.7547455 1.769604,2.9800905 1.472849,5.3343516 1.002198,8.6877444 -2.568141,2.614897 -4.214601,3.875408 -7.862549,4.454101 -1.531769,-0.03142 -1.531769,-0.03142 -3.094483,-0.06348 -1.111816,-0.01289 -2.223632,-0.02578 -3.36914,-0.03906 -1.150488,-0.03352 -2.300977,-0.06703 -3.486328,-0.101562 -1.169824,-0.01805 -2.339649,-0.03609 -3.544922,-0.05469 -2.8812111,-0.04704 -5.7619998,-0.11878 -8.6425782,-0.195312 0,3.63 0,7.26 0,11 2.1134179,-0.05221 2.1134179,-0.05221 4.2695312,-0.105469 1.8476443,-0.02814 3.695302,-0.05544 5.542969,-0.08203 0.928769,-0.02514 1.857539,-0.05027 2.814453,-0.07617 0.892676,-0.0097 1.785351,-0.01934 2.705078,-0.0293 0.82218,-0.01571 1.64436,-0.03142 2.491455,-0.04761 2.176514,0.340576 2.176514,0.340576 3.944824,1.640136 2.049324,2.829246 1.591878,5.338681 1.23169,8.70044 -1.23169,1.700439 -1.23169,1.700439 -3,3 -2.176514,0.340576 -2.176514,0.340576 -4.667969,0.292968 -0.892676,-0.0097 -1.785352,-0.01933 -2.705078,-0.0293 -1.393154,-0.03771 -1.393154,-0.03771 -2.814453,-0.07617 -0.940371,-0.01353 -1.880742,-0.02707 -2.8496096,-0.04102 -2.321208,-0.03535 -4.6421215,-0.08915 -6.9628906,-0.146484 0,3.96 0,7.92 0,12 1.8304687,-0.0348 3.6609374,-0.06961 5.5468749,-0.105469 2.4010323,-0.02814 4.8020753,-0.05544 7.2031253,-0.08203 1.206562,-0.02514 2.413125,-0.05027 3.65625,-0.07617 1.160156,-0.0097 2.320312,-0.01934 3.515625,-0.0293 1.06831,-0.01571 2.136621,-0.03142 3.237304,-0.04761 3.226855,0.386856 4.590086,1.017463 6.840821,3.340576 0.751265,6.010124 0.751265,6.010124 -1.285279,8.693496 -3.016255,2.298186 -6.786155,1.753026 -10.433471,1.740097 -0.854286,0.0052 -1.708572,0.01048 -2.588745,0.01588 -1.805531,0.0064 -3.611104,0.0051 -5.416626,-0.0034 -2.7658924,-0.0085 -5.5297223,0.02026 -8.2954105,0.052 -1.7539056,0.0016 -3.50781492,10e-4 -5.26171875,-0.002 -1.24227355,0.01685 -1.24227355,0.01685 -2.50964355,0.03404 -5.7419252,-0.06987 -5.7419252,-0.06987 -7.9259182,-2.221527 -1.549801,-2.788277 -1.669265,-4.567002 -1.687241,-7.748062 -0.01268,-1.087929 -0.02537,-2.175857 -0.03844,-3.296753 0.0029,-1.169865 0.0059,-2.339729 0.0089,-3.545044 -0.0052,-1.205636 -0.01048,-2.411272 -0.01588,-3.653443 -0.0064,-2.548616 -0.0051,-5.097263 0.0034,-7.645874 0.0085,-3.904669 -0.02026,-7.807877 -0.052,-11.712402 -0.0016,-2.47526 -10e-4,-4.950523 0.002,-7.425781 -0.01123,-1.169865 -0.02247,-2.339729 -0.03404,-3.545044 0.0094,-1.087929 0.01876,-2.175857 0.02843,-3.2967531 1.66e-4,-0.9561218 3.32e-4,-1.9122437 5.03e-4,-2.8973389 C -11.700147,-0.05607552 -6.1264177,-0.08590685 0,0 Z"
         fill="#172228"
         transform="translate(779.59766,761.50391)"
         id="path9" /><path
         d="M 0,0 C 1.2169631,-0.00855011 1.2169631,-0.00855011 2.4585114,-0.01727295 4.1758595,-0.02672485 5.8932258,-0.03325769 7.6105957,-0.03710938 10.240067,-0.04682388 12.868759,-0.07784818 15.498047,-0.109375 17.16536,-0.115904 18.832679,-0.121155 20.5,-0.125 c 1.181358,-0.0185202 1.181358,-0.0185202 2.386581,-0.0374145 5.440994,0.0222439 5.440994,0.0222439 7.922501,1.7649537 1.24839,1.9836267 1.440397,3.263183 1.444824,5.6005858 0.01934,0.680625 0.03867,1.36125 0.05859,2.0625001 -0.720094,2.8123369 -2.045808,3.4483639 -4.496094,4.9374999 -2.657226,0.432373 -2.657226,0.432373 -5.640625,0.511719 -1.604883,0.05317 -1.604883,0.05317 -3.242187,0.107422 -1.666758,0.03384 -1.666758,0.03384 -3.367188,0.06836 -1.689961,0.05124 -1.689961,0.05124 -3.414062,0.103516 -2.7785468,0.08241 -5.5567803,0.151587 -8.3359377,0.208984 -0.33,3.3 -0.6600001,6.6 -1,10 2.1134179,-0.05221 2.1134179,-0.05221 4.2695312,-0.105469 1.8476443,-0.02814 3.6953015,-0.05544 5.5429685,-0.08203 0.92877,-0.02514 1.857539,-0.05027 2.814453,-0.07617 0.892676,-0.0097 1.785352,-0.01934 2.705078,-0.0293 0.822181,-0.01571 1.644361,-0.03142 2.491456,-0.04761 2.176513,0.340576 2.176513,0.340576 3.944824,1.640137 2.049324,2.829245 1.591878,5.338681 1.231689,8.700439 -1.231689,1.700439 -1.231689,1.700439 -3,3 -2.176513,0.340576 -2.176513,0.340576 -4.667969,0.292969 -0.892675,-0.0097 -1.785351,-0.01934 -2.705078,-0.0293 -1.393154,-0.03771 -1.393154,-0.03771 -2.814453,-0.07617 -0.940371,-0.01353 -1.880742,-0.02707 -2.8496091,-0.04102 -2.321208,-0.03535 -4.6421215,-0.08915 -6.9628906,-0.146484 0,3.96 0,7.92 0,12 1.9142578,-0.04641 3.8285156,-0.09281 5.8007812,-0.140625 2.5038905,-0.03751 5.0077985,-0.07391 7.5117185,-0.109375 1.262637,-0.03352 2.525274,-0.06703 3.826172,-0.101563 1.208496,-0.01289 2.416992,-0.02578 3.662109,-0.03906 1.673163,-0.03142 1.673163,-0.03142 3.380127,-0.06348 2.819092,0.454102 2.819092,0.454102 4.6792,2.322266 1.434865,2.683497 1.665207,4.130038 1.139892,7.131836 -1.505859,2.118652 -1.505859,2.118652 -4,4 -2.908903,0.421933 -5.433846,0.608397 -8.34375,0.601562 -1.209161,0.01286 -1.209161,0.01286 -2.442749,0.02597 -1.701174,0.01147 -3.402447,0.0125 -5.103637,0.0038 -2.602122,-0.0063 -5.1997094,0.04062 -7.80127,0.09131 -1.6549422,0.0045 -3.3098966,0.006 -4.96484375,0.0039 -0.77613647,0.01842 -1.55227295,0.03684 -2.35192875,0.05582 -3.8251242,-0.0655 -5.6499074,-0.465983 -8.4844975,-3.08902 -2.134058,-5.22903 -2.041782,-9.917299 -1.968261,-15.513672 9.16e-4,-1.136217 0.0018,-2.272435 0.0028,-3.443084 0.006,-2.395479 0.02175,-4.790951 0.04654,-7.18631 0.03656,-3.66939 0.04102,-7.337771 0.04053,-11.007324 0.0098,-2.329436 0.02149,-4.658865 0.03516,-6.988282 0.0022,-1.097969 0.0045,-2.195938 0.0067,-3.327178 0.01276,-1.021411 0.02552,-2.042822 0.03867,-3.095185 0.0076,-0.8967944 0.01525,-1.7935892 0.0231,-2.7175595 0.287292,-2.5941539 0.872237,-4.2192917 2.267425,-6.4147644 C -6.9861624,-0.39559069 -3.5130026,0.01890819 0,0 Z"
         fill="#192329"
         transform="translate(579.18359,761.79687)"
         id="path10" /><path
         d="m 0,0 c 1.1758667,-0.00929787 1.1758667,-0.00929787 2.3754883,-0.01878357 1.6541215,-0.0070904 3.3083145,-0.0039376 4.9624023,0.0087738 2.5293309,0.01387335 5.0549654,-0.02021751 7.5839844,-0.05834961 1.609376,-9.5119e-4 3.218756,9.0764e-4 4.828125,0.0058594 0.754263,-0.01325821 1.508525,-0.02651642 2.285645,-0.04017639 3.851076,0.06821716 5.494086,0.33739464 8.315917,3.04823297 1.716,2.952124 2.208936,4.2790471 1.523438,7.6208494 -2.135849,2.729627 -3.284685,3.88184 -6.749023,4.454102 -1.026416,-0.02095 -2.052832,-0.0419 -3.110352,-0.06348 -1.115039,-0.01289 -2.230078,-0.02578 -3.378906,-0.03906 -1.738301,-0.05027 -1.738301,-0.05027 -3.511719,-0.101563 -1.174336,-0.01805 -2.348672,-0.03609 -3.558594,-0.05469 C 8.6689224,14.714605 5.771858,14.642863 2.875,14.566406 c 0,3.63 0,7.26 0,11 1.3367578,-0.0348 2.6735156,-0.06961 4.0507812,-0.105469 1.7538938,-0.02814 3.5078008,-0.05544 5.2617188,-0.08203 0.881074,-0.02514 1.762148,-0.05027 2.669922,-0.07617 0.847558,-0.0097 1.695117,-0.01934 2.568359,-0.0293 0.780286,-0.01571 1.560572,-0.03142 2.364502,-0.04761 2.652868,0.433394 3.506198,1.191976 5.084717,3.340576 0.4375,3.5 0.4375,3.5 0,7 -1.80117,2.121594 -3.246378,2.912563 -6.015869,3.233887 C 16.440625,38.86209 14.043107,38.82758 11.625,38.7539 10.784531,38.74037 9.9440625,38.72683 9.078125,38.71288 7.0101406,38.67763 4.9424873,38.62382 2.875,38.566395 c 0,3.63 0,7.26 0,11 1.6744922,-0.05801 3.3489844,-0.116015 5.0742187,-0.175781 2.2043993,-0.0469 4.4088283,-0.0924 6.6132813,-0.136719 1.102793,-0.04189 2.205586,-0.08379 3.341797,-0.126953 8.165873,-0.123351 8.165873,-0.123351 12.24414,2.728516 1.726563,2.710937 1.726563,2.710937 1.664063,6.398437 -0.9375,3.3125 -0.9375,3.3125 -2.9375,5.3125 -2.749663,0.23665 -5.395312,0.352321 -8.148438,0.371094 -1.213405,0.01354 -1.213405,0.01354 -2.451324,0.02736 -1.713128,0.01452 -3.426311,0.02339 -5.139496,0.02708 -2.619118,0.01189 -5.2358725,0.06104 -7.854492,0.111573 -1.664051,0.0095 -3.3281165,0.0167 -4.9921875,0.02148 -1.17361588,0.0293 -1.17361588,0.0293 -2.3709412,0.05919 -3.5005726,-0.02899 -5.6608265,-0.345571 -8.5357973,-2.392685 -2.35341,-5.035398 -2.077485,-9.893227 -2.038574,-15.385254 -0.0038,-1.182025 -0.0077,-2.36405 -0.0116,-3.581894 -0.0027,-2.495578 0.0046,-4.991186 0.02136,-7.48671 0.02143,-3.823479 1.85e-4,-7.645084 -0.02539,-11.468505 0.0026,-2.425135 0.0078,-4.850268 0.01563,-7.275391 -0.0081,-1.144854 -0.01619,-2.289707 -0.02454,-3.469254 0.01261,-1.06468 0.02522,-2.12936 0.03821,-3.2263026 0.0032,-0.9353408 0.0064,-1.8706815 0.0096,-2.8343659 C -11.245013,0.23966964 -5.9671884,-0.03923895 0,0 Z"
         fill="#1a2227"
         transform="translate(452.125,761.43359)"
         id="path11" /><path
         d="M 0,0 C 4.5956569,3.031178 4.5956569,3.031178 5.7890625,5.890625 6,8 6,8 4.9960937,9.9570313 3.4148559,11.839457 1.9456004,13.492051 0,15 -3.2601891,15.065204 -5.0671347,14.51548 -7.8945312,12.953125 -10.270646,11.877481 -11.964829,11.700686 -14.5625,11.6875 c -1.146621,-0.02514 -1.146621,-0.02514 -2.316406,-0.05078 -2.182684,0.22845 -2.182684,0.22845 -3.960938,1.570312 -1.45729,1.812076 -1.45729,1.812076 -0.732666,4.40503 0.188928,0.78802 0.377857,1.57604 0.57251,2.387939 0.609968,0.191104 1.219937,0.382207 1.848389,0.579102 2.7834,0.879052 5.561159,1.774784 8.339111,2.670898 0.959707,0.300352 1.9194141,0.600703 2.9082031,0.910156 C -1.6968924,26.179174 2.7725397,28.015399 6.78125,33.386719 8.9952414,38.134027 8.7028777,42.887559 8,48 5.5011595,54.610181 1.034657,58.042732 -5.2304687,61.082031 -11.755586,63.244799 -20.937274,63.05398 -27.5,60.875 -31.535275,58.713246 -35.10193,56.5964 -38,53 c -0.75,-3.0625 -0.75,-3.0625 0,-6 2.1875,-2.9375 2.1875,-2.9375 5,-5 3.534717,-0.09302 5.167334,1.11044 8.125,3.0625 4.601905,2.787497 9.652921,2.652626 14.875,1.9375 0.99,-0.66 1.98,-1.32 3,-2 -0.2703463,-2.437173 -0.2703463,-2.437173 -1,-5 -3.31761,-2.21174 -6.381494,-2.916531 -10.1875,-3.8125 -12.953623,-3.30467 -12.953623,-3.30467 -17.175781,-9.039063 -2.83808,-5.051976 -3.40509,-9.38864 -2.234375,-15.117187 C -35.843225,6.068476 -32.073922,2.4383721 -27,-1 -18.776253,-5.1463113 -8.0254406,-4.0856788 0,0 Z"
         fill="#1a2329"
         transform="translate(740,764)"
         id="path12" /><path
         d="M 0,0 C 2.5604957,1.4524449 4.4076573,2.6283275 6.0039062,5.1367187 6.1316575,9.991265 3.0913851,12.732575 0.00390625,16.136719 -5.6002856,14.353567 -5.6002856,14.353567 -7.9140625,13.085938 c -2.3645725,-1.078032 -4.0561265,-1.24858 -6.6445315,-1.261719 -1.146621,-0.02514 -1.146621,-0.02514 -2.316406,-0.05078 -2.188044,0.216265 -2.188044,0.216265 -3.898437,1.632812 -1.607353,1.921806 -1.607353,1.921806 -1.222657,5.730469 1.575879,0.580078 1.575879,0.580078 3.183594,1.171875 3.622171,1.338844 7.233949,2.703631 10.8417969,4.080566 1.6161431,0.611849 3.2397216,1.204025 4.8652343,1.790527 4.4583548,1.736333 7.7342631,3.6278 10.2929688,7.773438 2.0070187,5.368055 1.9374039,11.25285 -0.1054688,16.59375 -3.1824897,5.528026 -7.2486725,8.434965 -13.1406249,10.839844 -9.0383243,2.204469 -17.9580333,1.570927 -25.9375003,-3.25 -3.374849,-2.109281 -4.676405,-3.173035 -6.125,-6.875 0.179833,-4.495812 2.026779,-5.951213 5.125,-9.125 3.408492,0.41315 5.208176,1.137396 8.125,3.0625 4.601905,2.787497 9.652921,2.652625 14.8750002,1.9375 0.99,-0.66 1.98,-1.32 3.0000001,-2 0.1344077,-2.429199 0.1344077,-2.429199 -1,-5 -2.7050603,-1.27297 -5.1518083,-2.144284 -8.0000003,-3 -9.62412,-2.934317 -16.119904,-5.050978 -21.121093,-14.007813 -1.899898,-4.306433 -1.136209,-8.22028 0.308593,-12.554687 3.010953,-5.7104271 6.372838,-10.0681438 12.316407,-12.7421878 C -16.275304,-4.4568659 -7.6687905,-3.6006677 0,0 Z"
         fill="#1a2428"
         transform="translate(539.99609,763.86328)"
         id="path13" /><path
         d="M 0,0 C 7.4289168,3.4049202 10.577266,10.351059 13.417969,17.636719 17.229315,28.456243 19.378573,38.683021 19.3125,50.1875 19.3062,51.689902 19.3062,51.689902 19.2998,53.222656 19.139078,63.864844 18.52694,75.157049 12,84 8.5273673,85.736316 4.7880699,85.601904 1,85 -1.7556945,82.818409 -3.4358875,81.128225 -5,78 -5.2276454,73.674738 -5.0933094,70.00767 -4.015625,65.816406 -0.3361174,49.790728 -3.2555948,33.644975 -10.3125,19 -12.354653,14.698975 -12.929023,10.699764 -12,6 -8.7002813,0.72045 -6.1710919,-0.59337422 0,0 Z"
         fill="#fafbfb"
         transform="translate(654,499)"
         id="path14" /><path
         d="M 0,0 C 2.6655273,0.99047852 2.6655273,0.99047852 5.3359375,2.3789063 6.3182031,2.8887305 7.3004687,3.3985547 8.3125,3.9238281 9.323125,4.4645898 10.33375,5.0053516 11.375,5.5625 12.377891,6.0761914 13.380781,6.5898828 14.414063,7.1191406 28.866604,14.733209 28.866604,14.733209 32,21 c 0.407106,4.233902 0.25576,6.515884 -1.75,10.3125 -2.92903,3.498564 -4.474295,4.498975 -8.972656,4.976562 C 17.198913,35.929344 14.695727,34.289891 11.4375,32 10.212073,31.170196 8.9854806,30.34211 7.7578125,29.515625 7.1380957,29.094746 6.5183789,28.673867 5.8798828,28.240234 4.0507196,27.033462 2.1954716,25.904118 0.3046875,24.796875 -0.2823999,24.451406 -0.8694873,24.105937 -1.4743652,23.75 -3.0983463,22.802041 -4.7267854,21.861732 -6.3554687,20.921875 -9.2312246,18.831961 -10.505632,17.202928 -12,14 -12.92749,7.5075697 -12.92749,7.5075697 -10.863281,4.1523437 -7.3467233,0.24813372 -5.3317318,-0.35347827 0,0 Z"
         fill="#f8f9f9"
         transform="translate(594,451)"
         id="path16" /><path
         d="m 0,0 c 4.4391417,1.210675 4.4391417,1.210675 6.4375,3.9375 0.3809509,2.5045166 0.3809509,2.5045166 0.3881836,5.5253906 0.00946,1.1312734 0.018913,2.2625464 0.028656,3.4281004 -0.00607,1.221911 -0.012145,2.443821 -0.018402,3.702759 0.00431,1.880722 0.00431,1.880722 0.0087,3.799438 0.00204,2.653269 -0.002,5.305712 -0.016022,7.958863 -0.017092,3.399865 -0.00725,6.79902 0.010717,10.19886 0.01345,3.243472 0.00403,6.486858 -0.00339,9.730339 0.00911,1.832866 0.00911,1.832866 0.018402,3.702759 -0.00946,1.131273 -0.018913,2.262546 -0.028656,3.4281 -0.00239,0.996889 -0.00477,1.993777 -0.00723,3.020874 C 6.3786644,61.324308 5.7618591,62.220517 3.4375,63.9375 c -1.9375,0.398437 -1.9375,0.398437 -4,0.375 -1.0209375,0.0116 -1.0209375,0.0116 -2.0625,0.02344 -2.5738601,-0.529301 -3.3357974,-1.323027 -4.9375,-3.398437 -0.38768,-2.497787 -0.38768,-2.497787 -0.4040527,-5.509521 -0.012684,-1.128046 -0.025368,-2.256091 -0.038437,-3.41832 0.00294,-1.218774 0.00587,-2.437547 0.0089,-3.693253 -0.00524,-1.251443 -0.010484,-2.502886 -0.015884,-3.792251 -0.00643,-2.649077 -0.00651,-5.297294 0.00343,-7.946274 0.011485,-3.390947 -0.00871,-6.780851 -0.037917,-10.171661 -0.022783,-3.238276 -0.015894,-6.476476 -0.012132,-9.714814 -0.011234,-1.216749 -0.022468,-2.433498 -0.034042,-3.687118 0.00938,-1.131198 0.018762,-2.262396 0.028427,-3.427872 1.662e-4,-0.9946678 3.324e-4,-1.9893356 5.036e-4,-3.0141449 C -7.1326747,1.6865406 -4.860445,-0.08527096 0,0 Z"
         fill="#1d2429"
         transform="translate(332.5625,761.0625)"
         id="path17" /><path
         d="M 0,0 C 16.758865,0 16.758865,0 21.785156,4.6523437 26.069602,9.4432248 27.364617,13.243517 27.28125,19.652344 26.68886,24.597158 24.166434,27.864262 20.625,31.3125 13.470151,35.912046 9.2852846,35 0,35 0,23.45 0,11.9 0,0 Z"
         fill="#fbfcfc"
         transform="translate(378,776)"
         id="path19" /><path
         d="m 0,0 c 3.8053125,-0.12375 3.8053125,-0.12375 7.6875,-0.25 1.1846887,-0.054624 1.1846887,-0.054624 2.393311,-0.11035156 3.821797,-0.0599194 5.556287,0.12832428 8.87622,2.25097656 2.402792,2.4808941 2.950667,3.5160033 3.480469,6.921875 -0.51083,3.721762 -1.686499,4.880167 -4.590576,7.164307 C 14.539839,17.808927 11.306843,17.527179 7.625,17.3125 5.10875,17.209375 2.5925,17.10625 0,17 0,11.39 0,5.78 0,0 Z"
         fill="#f9f9fa"
         transform="translate(262,776)"
         id="path23" /><path
         d="m 751.68021,498.9594 a 2.6745672,2.0174031 0 0 0 -2.67578,2.01757 2.6745672,2.0174031 0 0 0 2.67578,2.01758 2.6745672,2.0174031 0 0 0 2.67383,-2.01758 2.6745672,2.0174031 0 0 0 -2.67383,-2.01757 z"
         style="opacity:1;fill:#294dff;stroke-width:0.871761;fill-opacity:1"
         id="path53" /></g></g></svg>
